<svg xmlns="http://www.w3.org/2000/svg" version="1.1" xmlns:xlink="http://www.w3.org/1999/xlink" xmlns:svgjs="http://svgjs.dev/svgjs" width="1500" height="375" viewBox="0 0 1500 375"><g transform="matrix(1,0,0,1,-0.9090909090909918,0.6128416175771463)"><svg viewBox="0 0 396 99" data-background-color="#ffffff" preserveAspectRatio="xMidYMid meet" height="375" width="1500" xmlns="http://www.w3.org/2000/svg" xmlns:xlink="http://www.w3.org/1999/xlink"><g id="tight-bounds" transform="matrix(1,0,0,1,0.2400000000000091,-0.16179018704036707)"><svg viewBox="0 0 395.52 99.32358037408073" height="99.32358037408073" width="395.52"><g><svg viewBox="0 0 551.5104570632923 138.4961397888145" height="99.32358037408073" width="395.52"><g transform="matrix(1,0,0,1,155.99045706329233,19.140928147368726)"><svg viewBox="0 0 395.52 100.21428349407705" height="100.21428349407705" width="395.52"><g id="textblocktransform"><svg viewBox="0 0 395.52 100.21428349407705" height="100.21428349407705" width="395.52" id="textblock"><g><svg viewBox="0 0 395.52 74.10459883460332" height="74.10459883460332" width="395.52"><g transform="matrix(1,0,0,1,0,0)"><svg width="395.52" viewBox="0.35 -40.85 223.48000000000002 41.800000000000004" height="74.10459883460332" data-palette-color="#3765a2"><g class="wordmark-text-0" data-fill-palette-color="primary" id="text-0"><path d="M3.05 0.95L0.35 0.95 0.35-3.1Q2.2-3.1 3.35-3.35 4.5-3.6 5.13-4.25 5.75-4.9 6-6.13 6.25-7.35 6.25-9.25L6.25-9.25 6.25-40.5 11.85-40.5 11.85-9.15Q11.85-5.65 11.1-3.43 10.35-1.2 8.45-0.13 6.55 0.95 3.05 0.95L3.05 0.95ZM22.95 0.4L22.95 0.4Q21.25 0.4 19.95-0.58 18.65-1.55 17.9-3.08 17.15-4.6 17.15-6.3L17.15-6.3Q17.15-9 18.05-10.85 18.95-12.7 20.52-13.98 22.1-15.25 24.17-16.2 26.25-17.15 28.55-18.05L28.55-18.05 28.55-20.1Q28.55-21.85 28.35-23 28.15-24.15 27.52-24.73 26.9-25.3 25.65-25.3L25.65-25.3Q24.55-25.3 23.87-24.8 23.2-24.3 22.9-23.38 22.6-22.45 22.6-21.2L22.6-21.2 22.6-19.75 17.3-19.95Q17.4-24.75 19.5-27.03 21.6-29.3 26-29.3L26-29.3Q30.3-29.3 32.1-26.95 33.9-24.6 33.9-20.15L33.9-20.15 33.9-6.95Q33.9-5.6 33.97-4.35 34.05-3.1 34.17-2.02 34.3-0.95 34.4 0L34.4 0 29.5 0Q29.35-0.8 29.12-2.02 28.9-3.25 28.8-4.25L28.8-4.25Q28.3-2.55 26.87-1.07 25.45 0.4 22.95 0.4ZM25.05-4.2L25.05-4.2Q25.85-4.2 26.55-4.65 27.25-5.1 27.8-5.68 28.35-6.25 28.55-6.6L28.55-6.6 28.55-14.8Q27.3-14.1 26.2-13.4 25.1-12.7 24.27-11.93 23.45-11.15 22.97-10.18 22.5-9.2 22.5-7.95L22.5-7.95Q22.5-6.2 23.15-5.2 23.8-4.2 25.05-4.2ZM49.35 0L42.8 0 37.1-28.9 42.5-28.9 46.05-5.65 49.65-28.9 54.85-28.9 49.35 0ZM63.49 0.4L63.49 0.4Q61.79 0.4 60.49-0.58 59.19-1.55 58.44-3.08 57.69-4.6 57.69-6.3L57.69-6.3Q57.69-9 58.59-10.85 59.49-12.7 61.07-13.98 62.64-15.25 64.72-16.2 66.79-17.15 69.09-18.05L69.09-18.05 69.09-20.1Q69.09-21.85 68.89-23 68.69-24.15 68.07-24.73 67.44-25.3 66.19-25.3L66.19-25.3Q65.09-25.3 64.42-24.8 63.74-24.3 63.44-23.38 63.14-22.45 63.14-21.2L63.14-21.2 63.14-19.75 57.84-19.95Q57.94-24.75 60.04-27.03 62.14-29.3 66.54-29.3L66.54-29.3Q70.84-29.3 72.64-26.95 74.44-24.6 74.44-20.15L74.44-20.15 74.44-6.95Q74.44-5.6 74.52-4.35 74.59-3.1 74.72-2.02 74.84-0.95 74.94 0L74.94 0 70.04 0Q69.89-0.8 69.67-2.02 69.44-3.25 69.34-4.25L69.34-4.25Q68.84-2.55 67.42-1.07 65.99 0.4 63.49 0.4ZM65.59-4.2L65.59-4.2Q66.39-4.2 67.09-4.65 67.79-5.1 68.34-5.68 68.89-6.25 69.09-6.6L69.09-6.6 69.09-14.8Q67.84-14.1 66.74-13.4 65.64-12.7 64.82-11.93 63.99-11.15 63.52-10.18 63.04-9.2 63.04-7.95L63.04-7.95Q63.04-6.2 63.69-5.2 64.34-4.2 65.59-4.2ZM90.84 0L80.04 0 80.04-40.5 89.34-40.5Q92.09-40.5 94.12-39.9 96.14-39.3 97.49-38.05 98.84-36.8 99.49-34.88 100.14-32.95 100.14-30.35L100.14-30.35Q100.14-27.85 99.52-26.03 98.89-24.2 97.62-23.15 96.34-22.1 94.34-21.8L94.34-21.8Q96.79-21.25 98.29-19.93 99.79-18.6 100.52-16.53 101.24-14.45 101.24-11.55L101.24-11.55Q101.24-8.95 100.64-6.8 100.04-4.65 98.77-3.15 97.49-1.65 95.52-0.83 93.54 0 90.84 0L90.84 0ZM85.69-19.3L85.69-4.05 89.49-4.05Q93.29-4.05 94.57-5.83 95.84-7.6 95.84-11.55L95.84-11.55Q95.84-14.1 95.17-15.83 94.49-17.55 93.02-18.43 91.54-19.3 89.04-19.3L89.04-19.3 85.69-19.3ZM85.69-36.3L85.69-23.6 89.04-23.6Q91.44-23.6 92.79-24.28 94.14-24.95 94.69-26.45 95.24-27.95 95.24-30.35L95.24-30.35Q95.24-33.15 94.39-34.4 93.54-35.65 91.74-35.98 89.94-36.3 87.04-36.3L87.04-36.3 85.69-36.3ZM111.29 0L105.94 0 105.94-28.9 111.29-28.9 111.29-24.8Q112.89-27.45 114.49-28.35 116.09-29.25 117.69-29.25L117.69-29.25Q117.89-29.25 118.06-29.25 118.24-29.25 118.54-29.2L118.54-29.2 118.54-23.3Q117.94-23.55 117.16-23.73 116.39-23.9 115.59-23.9L115.59-23.9Q114.34-23.9 113.31-23.33 112.29-22.75 111.29-21.1L111.29-21.1 111.29 0ZM129.79 0.4L129.79 0.4Q126.59 0.4 124.74-0.9 122.89-2.2 122.11-4.6 121.34-7 121.34-10.25L121.34-10.25 121.34-18.65Q121.34-21.9 122.11-24.3 122.89-26.7 124.74-28 126.59-29.3 129.79-29.3L129.79-29.3Q132.99-29.3 134.81-28 136.64-26.7 137.41-24.3 138.19-21.9 138.19-18.65L138.19-18.65 138.19-10.25Q138.19-7 137.41-4.6 136.64-2.2 134.81-0.9 132.99 0.4 129.79 0.4ZM129.79-3.55L129.79-3.55Q131.34-3.55 131.96-4.45 132.59-5.35 132.71-6.83 132.84-8.3 132.84-9.9L132.84-9.9 132.84-18.95Q132.84-20.6 132.71-22.05 132.59-23.5 131.96-24.43 131.34-25.35 129.79-25.35L129.79-25.35Q128.24-25.35 127.59-24.43 126.94-23.5 126.81-22.05 126.69-20.6 126.69-18.95L126.69-18.95 126.69-9.9Q126.69-8.3 126.81-6.83 126.94-5.35 127.59-4.45 128.24-3.55 129.79-3.55ZM153.68 0.45L153.68 0.45Q149.38 0.45 147.01-1.35 144.63-3.15 143.71-6.2 142.78-9.25 142.78-13L142.78-13 142.78-27.3Q142.78-31.4 143.71-34.45 144.63-37.5 147.01-39.18 149.38-40.85 153.68-40.85L153.68-40.85Q157.48-40.85 159.71-39.45 161.93-38.05 162.91-35.45 163.88-32.85 163.88-29.2L163.88-29.2 163.88-26 158.53-26 158.53-28.85Q158.53-31.1 158.31-32.83 158.08-34.55 157.08-35.5 156.08-36.45 153.73-36.45L153.73-36.45Q151.33-36.45 150.23-35.43 149.13-34.4 148.81-32.52 148.48-30.65 148.48-28.15L148.48-28.15 148.48-12.1Q148.48-9.05 148.98-7.28 149.48-5.5 150.63-4.75 151.78-4 153.73-4L153.73-4Q156.03-4 157.03-5.03 158.03-6.05 158.28-7.85 158.53-9.65 158.53-12.05L158.53-12.05 158.53-15.05 163.88-15.05 163.88-12.05Q163.88-8.35 162.98-5.53 162.08-2.7 159.88-1.13 157.68 0.45 153.68 0.45ZM174.33 0L168.98 0 168.98-40.5 174.33-40.5 174.33-25.9Q175.78-27.3 177.58-28.3 179.38-29.3 181.58-29.3L181.58-29.3Q183.28-29.3 184.21-28.4 185.13-27.5 185.51-26.15 185.88-24.8 185.88-23.4L185.88-23.4 185.88 0 180.53 0 180.53-21.85Q180.53-23.4 180.08-24.25 179.63-25.1 178.23-25.1L178.23-25.1Q177.28-25.1 176.26-24.55 175.23-24 174.33-23.2L174.33-23.2 174.33 0ZM196.28 0.4L196.28 0.4Q194.58 0.4 193.28-0.58 191.98-1.55 191.23-3.08 190.48-4.6 190.48-6.3L190.48-6.3Q190.48-9 191.38-10.85 192.28-12.7 193.85-13.98 195.43-15.25 197.5-16.2 199.58-17.15 201.88-18.05L201.88-18.05 201.88-20.1Q201.88-21.85 201.68-23 201.48-24.15 200.85-24.73 200.23-25.3 198.98-25.3L198.98-25.3Q197.88-25.3 197.2-24.8 196.53-24.3 196.23-23.38 195.93-22.45 195.93-21.2L195.93-21.2 195.93-19.75 190.63-19.95Q190.73-24.75 192.83-27.03 194.93-29.3 199.33-29.3L199.33-29.3Q203.63-29.3 205.43-26.95 207.23-24.6 207.23-20.15L207.23-20.15 207.23-6.95Q207.23-5.6 207.3-4.35 207.38-3.1 207.5-2.02 207.63-0.95 207.73 0L207.73 0 202.83 0Q202.68-0.8 202.45-2.02 202.23-3.25 202.13-4.25L202.13-4.25Q201.63-2.55 200.2-1.07 198.78 0.4 196.28 0.4ZM198.38-4.2L198.38-4.2Q199.18-4.2 199.88-4.65 200.58-5.1 201.13-5.68 201.68-6.25 201.88-6.6L201.88-6.6 201.88-14.8Q200.63-14.1 199.53-13.4 198.43-12.7 197.6-11.93 196.78-11.15 196.3-10.18 195.83-9.2 195.83-7.95L195.83-7.95Q195.83-6.2 196.48-5.2 197.13-4.2 198.38-4.2ZM220.08 0.4L220.08 0.4Q217.83 0.4 216.45-0.45 215.08-1.3 214.45-2.85 213.83-4.4 213.83-6.5L213.83-6.5 213.83-25.35 210.78-25.35 210.78-28.9 213.83-28.9 213.83-37.35 219.18-37.35 219.18-28.9 223.83-28.9 223.83-25.35 219.18-25.35 219.18-6.85Q219.18-5.15 219.73-4.42 220.28-3.7 221.83-3.7L221.83-3.7Q222.23-3.7 222.75-3.75 223.28-3.8 223.78-3.85L223.78-3.85 223.78 0.1Q222.78 0.25 221.93 0.33 221.08 0.4 220.08 0.4Z" fill="#3765a2" data-fill-palette-color="primary"></path></g></svg></g></svg></g><g transform="matrix(1,0,0,1,0,91.59891610908113)"><svg viewBox="0 0 232.209792 8.615367384995915" height="8.615367384995915" width="232.209792"><g transform="matrix(1,0,0,1,0,0)"><svg width="232.209792" viewBox="0.49 -40.5 1105.42 41.01" height="8.615367384995915" data-palette-color="#3765a2"><path d="M17.33 0L0.49-38.16 8.94-38.16 19.29-13.53 21.68-7.57 23.56-13.53 27.37-22.51 20.51-38.16 28.47-38.16 31.27-30.71 33.89-38.16 41.85-38.16 34.99-22.51 38.87-13.33 41.21-7.57 43.02-13.43 53.42-38.16 61.87-38.16 45.02 0 37.35 0 33.96-7.57 31.2-14.92 28.44-7.57 25 0 17.33 0ZM66.87 0L66.87-40.48 74.09-40.48 74.09-26.61Q76.36-27.86 79.16-28.59 81.96-29.32 85.03-29.32L85.03-29.32Q88.6-29.32 91.44-28.27 94.28-27.22 96.26-25.26 98.24-23.29 99.3-20.48 100.36-17.68 100.36-14.16L100.36-14.16 100.36 0 93.16 0 93.16-13.87Q93.16-15.92 92.5-17.61 91.84-19.31 90.57-20.53 89.3-21.75 87.49-22.42 85.67-23.1 83.37-23.1L83.37-23.1Q80.61-23.1 78.24-22.22 75.88-21.34 74.09-20L74.09-20 74.09 0 66.87 0ZM107.08-14.5L107.08-14.5Q107.08-17.43 108.27-20.1 109.47-22.78 111.71-24.83 113.96-26.88 117.22-28.1 120.48-29.32 124.63-29.32L124.63-29.32Q128.75-29.32 132.06-28.09 135.37-26.86 137.68-24.71 139.99-22.56 141.22-19.65 142.45-16.75 142.45-13.43L142.45-13.43Q142.45-13.01 142.44-12.54 142.43-12.06 142.38-11.67L142.38-11.67 115.13-11.67Q115.6-10.38 116.63-9.3 117.67-8.23 119.23-7.45 120.8-6.67 122.85-6.24 124.9-5.81 127.39-5.81L127.39-5.81Q129.88-5.81 132.34-6.34 134.81-6.86 137.06-7.67L137.06-7.67 139.5-2.15Q138.08-1.49 136.63-0.99 135.18-0.49 133.6-0.16 132.03 0.17 130.31 0.34 128.58 0.51 126.68 0.51L126.68 0.51Q121.82 0.51 118.16-0.66 114.5-1.83 112.03-3.86 109.57-5.88 108.32-8.62 107.08-11.35 107.08-14.5ZM115.13-17.31L134.79-17.31Q134.39-18.51 133.58-19.54 132.76-20.58 131.54-21.35 130.32-22.12 128.71-22.56 127.09-23 125.17-23L125.17-23Q123.12-23 121.43-22.53 119.75-22.07 118.48-21.29 117.21-20.51 116.36-19.48 115.52-18.46 115.13-17.31L115.13-17.31ZM150.21 0L150.21-28.81 157.44-28.81 157.44-24.66Q159.83-26.44 162.49-27.73 165.15-29.03 167.79-29.71L167.79-29.71 169.91-23.1Q165.74-22.68 162.58-21.23 159.42-19.78 157.44-17.14L157.44-17.14 157.44 0 150.21 0ZM173.92-14.5L173.92-14.5Q173.92-17.43 175.11-20.1 176.31-22.78 178.55-24.83 180.8-26.88 184.06-28.1 187.32-29.32 191.47-29.32L191.47-29.32Q195.6-29.32 198.9-28.09 202.21-26.86 204.52-24.71 206.83-22.56 208.06-19.65 209.29-16.75 209.29-13.43L209.29-13.43Q209.29-13.01 209.28-12.54 209.27-12.06 209.22-11.67L209.22-11.67 181.97-11.67Q182.44-10.38 183.47-9.3 184.51-8.23 186.07-7.45 187.64-6.67 189.69-6.24 191.74-5.81 194.23-5.81L194.23-5.81Q196.72-5.81 199.18-6.34 201.65-6.86 203.9-7.67L203.9-7.67 206.34-2.15Q204.92-1.49 203.47-0.99 202.02-0.49 200.44-0.16 198.87 0.17 197.15 0.34 195.42 0.51 193.52 0.51L193.52 0.51Q188.66 0.51 185-0.66 181.34-1.83 178.87-3.86 176.41-5.88 175.16-8.62 173.92-11.35 173.92-14.5ZM181.97-17.31L201.63-17.31Q201.24-18.51 200.42-19.54 199.6-20.58 198.38-21.35 197.16-22.12 195.55-22.56 193.94-23 192.01-23L192.01-23Q189.96-23 188.27-22.53 186.59-22.07 185.32-21.29 184.05-20.51 183.21-19.48 182.36-18.46 181.97-17.31L181.97-17.31ZM232.24-19.31L232.24-19.31Q232.24-23.39 233.77-26.92 235.31-30.44 238.23-33.04 241.15-35.64 245.36-37.13 249.57-38.62 254.89-38.62L254.89-38.62Q259.56-38.62 263.45-37.68 267.34-36.74 270.69-34.81L270.69-34.81 267.12-28.96Q266.12-29.61 264.82-30.13 263.51-30.64 262.03-30.99 260.56-31.35 258.98-31.54 257.41-31.74 255.87-31.74L255.87-31.74Q252.16-31.74 249.25-30.82 246.35-29.91 244.36-28.26 242.37-26.61 241.33-24.33 240.29-22.05 240.29-19.31L240.29-19.31Q240.29-16.48 241.37-14.11 242.44-11.74 244.48-10.02 246.52-8.3 249.46-7.34 252.4-6.37 256.11-6.37L256.11-6.37Q257.8-6.37 259.46-6.62 261.12-6.86 262.67-7.29 264.22-7.71 265.66-8.31 267.1-8.91 268.34-9.62L268.34-9.62 271.91-3.76Q268.78-1.76 264.68-0.62 260.58 0.51 255.97 0.51L255.97 0.51Q250.08 0.51 245.64-1.01 241.2-2.54 238.22-5.21 235.24-7.89 233.74-11.51 232.24-15.14 232.24-19.31ZM277.79-14.4L277.79-14.4Q277.79-17.5 279.05-20.21 280.3-22.92 282.64-24.95 284.97-26.98 288.28-28.15 291.58-29.32 295.71-29.32L295.71-29.32Q299.84-29.32 303.14-28.15 306.45-26.98 308.78-24.95 311.12-22.92 312.37-20.21 313.63-17.5 313.63-14.4L313.63-14.4Q313.63-11.3 312.37-8.59 311.12-5.88 308.78-3.86 306.45-1.83 303.14-0.66 299.84 0.51 295.71 0.51L295.71 0.51Q291.58 0.51 288.28-0.66 284.97-1.83 282.64-3.86 280.3-5.88 279.05-8.59 277.79-11.3 277.79-14.4ZM285.38-14.4L285.38-14.4Q285.38-12.67 286.08-11.12 286.77-9.57 288.11-8.39 289.44-7.2 291.35-6.51 293.27-5.81 295.71-5.81L295.71-5.81Q298.15-5.81 300.07-6.51 301.98-7.2 303.32-8.39 304.65-9.57 305.34-11.12 306.04-12.67 306.04-14.4L306.04-14.4Q306.04-16.14 305.34-17.7 304.65-19.26 303.32-20.45 301.98-21.63 300.07-22.33 298.15-23.02 295.71-23.02L295.71-23.02Q293.27-23.02 291.35-22.33 289.44-21.63 288.11-20.45 286.77-19.26 286.08-17.7 285.38-16.14 285.38-14.4ZM320.93 0L320.93-28.81 328.15-28.81 328.15-26.37Q331.03-28 333.66-28.66 336.28-29.32 338.8-29.32L338.8-29.32Q342.09-29.32 344.9-28.36 347.71-27.39 349.76-25.49 351.81-23.58 352.97-20.74 354.13-17.9 354.13-14.16L354.13-14.16 354.13 0 346.93 0 346.93-12.99Q346.93-15.36 346.26-17.22 345.59-19.09 344.33-20.37 343.07-21.66 341.28-22.33 339.48-23 337.26-23L337.26-23Q336.09-23 334.86-22.75 333.62-22.51 332.44-22.06 331.25-21.61 330.16-20.94 329.06-20.26 328.15-19.41L328.15-19.41 328.15 0 320.93 0ZM372.66 0L359.01-28.83 367.38-28.83 374.88-11.5 376.83-6.64 378.79-11.5 386.28-28.83 394.66-28.83 381.01 0 372.66 0ZM398.34-14.5L398.34-14.5Q398.34-17.43 399.54-20.1 400.73-22.78 402.98-24.83 405.22-26.88 408.48-28.1 411.74-29.32 415.89-29.32L415.89-29.32Q420.02-29.32 423.33-28.09 426.64-26.86 428.94-24.71 431.25-22.56 432.48-19.65 433.72-16.75 433.72-13.43L433.72-13.43Q433.72-13.01 433.7-12.54 433.69-12.06 433.64-11.67L433.64-11.67 406.4-11.67Q406.86-10.38 407.9-9.3 408.93-8.23 410.5-7.45 412.06-6.67 414.11-6.24 416.16-5.81 418.65-5.81L418.65-5.81Q421.14-5.81 423.61-6.34 426.07-6.86 428.32-7.67L428.32-7.67 430.76-2.15Q429.35-1.49 427.89-0.99 426.44-0.49 424.87-0.16 423.29 0.17 421.57 0.34 419.85 0.51 417.94 0.51L417.94 0.51Q413.09 0.51 409.42-0.66 405.76-1.83 403.3-3.86 400.83-5.88 399.58-8.62 398.34-11.35 398.34-14.5ZM406.4-17.31L426.05-17.31Q425.66-18.51 424.84-19.54 424.02-20.58 422.8-21.35 421.58-22.12 419.97-22.56 418.36-23 416.43-23L416.43-23Q414.38-23 412.69-22.53 411.01-22.07 409.74-21.29 408.47-20.51 407.63-19.48 406.79-18.46 406.4-17.31L406.4-17.31ZM441.48 0L441.48-28.81 448.7-28.81 448.7-24.66Q451.1-26.44 453.76-27.73 456.42-29.03 459.05-29.71L459.05-29.71 461.18-23.1Q457-22.68 453.84-21.23 450.68-19.78 448.7-17.14L448.7-17.14 448.7 0 441.48 0ZM464.57-3.37L467.69-8.84Q470.62-7.08 474.14-6.25 477.66-5.42 481.34-5.42L481.34-5.42Q483.83-5.42 485.49-5.76 487.15-6.1 488.15-6.64 489.15-7.18 489.57-7.86 489.98-8.54 489.98-9.25L489.98-9.25Q489.98-10.28 489.09-11.01 488.2-11.74 486.15-11.74L486.15-11.74Q485.2-11.74 484.1-11.62 483-11.5 481.79-11.36 480.59-11.23 479.28-11.11 477.97-10.99 476.63-10.99L476.63-10.99Q473.7-10.99 471.64-11.62 469.57-12.26 468.28-13.35 466.99-14.45 466.4-15.95 465.81-17.46 465.81-19.19L465.81-19.19Q465.81-21.39 466.84-23.24 467.87-25.1 469.77-26.45 471.67-27.81 474.37-28.56 477.07-29.32 480.39-29.32L480.39-29.32Q482.12-29.32 484.02-29.11 485.91-28.91 487.74-28.56 489.57-28.22 491.25-27.77 492.94-27.32 494.23-26.81L494.23-26.81 491.96-21.19Q489.2-22.22 486.46-22.81 483.71-23.41 480.8-23.41L480.8-23.41Q478.78-23.41 477.37-23.11 475.97-22.8 475.09-22.3 474.21-21.8 473.81-21.15 473.41-20.51 473.41-19.8L473.41-19.8Q473.41-19.29 473.62-18.87 473.82-18.46 474.3-18.15 474.77-17.85 475.54-17.69 476.31-17.53 477.44-17.53L477.44-17.53Q478.46-17.53 479.61-17.65 480.76-17.77 482-17.91 483.25-18.04 484.58-18.16 485.91-18.29 487.3-18.29L487.3-18.29Q489.89-18.29 491.83-17.68 493.77-17.07 495.04-15.97 496.31-14.87 496.94-13.38 497.58-11.89 497.58-10.13L497.58-10.13Q497.58-7.86 496.53-5.91 495.48-3.96 493.4-2.53 491.33-1.1 488.24-0.29 485.15 0.51 481.1 0.51L481.1 0.51Q478.61 0.51 476.29 0.21 473.97-0.1 471.87-0.62 469.77-1.15 467.93-1.86 466.08-2.56 464.57-3.37L464.57-3.37ZM502.7-9.08L502.7-9.08Q502.7-11.16 503.61-12.87 504.51-14.58 506.32-15.81 508.12-17.04 510.82-17.71 513.52-18.38 517.11-18.38L517.11-18.38Q519.77-18.38 522.71-17.99 525.65-17.6 528.78-16.8L528.78-16.8Q528.65-18.16 527.95-19.32 527.24-20.48 525.98-21.33 524.72-22.17 522.95-22.63 521.18-23.1 518.94-23.1L518.94-23.1Q517.72-23.1 516.25-22.95 514.79-22.8 513.22-22.51 511.66-22.22 510.14-21.78 508.61-21.34 507.29-20.73L507.29-20.73 505.09-26.66Q506.73-27.25 508.6-27.73 510.47-28.22 512.42-28.58 514.37-28.93 516.32-29.13 518.28-29.32 520.11-29.32L520.11-29.32Q528.19-29.32 532.12-25.2 536.05-21.07 536.05-12.55L536.05-12.55 536.05 0 528.82 0 528.82-2.71Q527.7-2.05 526.37-1.46 525.04-0.88 523.48-0.44 521.92 0 520.12 0.26 518.33 0.51 516.32 0.51L516.32 0.51Q512.96 0.51 510.4-0.22 507.85-0.95 506.14-2.25 504.44-3.54 503.57-5.29 502.7-7.03 502.7-9.08ZM510.32-9.33L510.32-9.33Q510.32-8.62 510.69-7.97 511.05-7.32 511.86-6.82 512.66-6.32 513.92-6.02 515.18-5.71 516.96-5.71L516.96-5.71Q518.86-5.71 520.65-6.05 522.43-6.4 523.97-6.96 525.5-7.52 526.75-8.25 527.99-8.98 528.82-9.77L528.82-9.77 528.82-11.04Q527.16-11.5 525.54-11.82 523.92-12.13 522.44-12.32 520.96-12.5 519.66-12.57 518.35-12.65 517.37-12.65L517.37-12.65Q515.35-12.65 514.01-12.38 512.66-12.11 511.83-11.66 511-11.21 510.66-10.6 510.32-9.99 510.32-9.33ZM549.94 0L549.94-23.39 542.98-23.39 542.98-28.81 549.94-28.81 549.94-37.77 557.17-37.77 557.17-28.81 564.13-28.81 564.13-23.39 557.17-23.39 557.17 0 549.94 0ZM574.35-32.74L574.35-32.74Q573.28-32.74 572.41-33.04 571.54-33.35 570.93-33.87 570.32-34.4 569.99-35.1 569.66-35.79 569.66-36.57L569.66-36.57Q569.66-37.38 569.99-38.07 570.32-38.77 570.93-39.28 571.54-39.79 572.41-40.1 573.28-40.41 574.35-40.41L574.35-40.41Q575.45-40.41 576.32-40.1 577.18-39.79 577.79-39.28 578.4-38.77 578.73-38.07 579.06-37.38 579.06-36.57L579.06-36.57Q579.06-35.79 578.73-35.1 578.4-34.4 577.79-33.87 577.18-33.35 576.32-33.04 575.45-32.74 574.35-32.74ZM570.74 0L570.74-28.81 577.97-28.81 577.97 0 570.74 0ZM585.48-14.4L585.48-14.4Q585.48-17.5 586.74-20.21 588-22.92 590.33-24.95 592.66-26.98 595.97-28.15 599.28-29.32 603.4-29.32L603.4-29.32Q607.53-29.32 610.84-28.15 614.14-26.98 616.48-24.95 618.81-22.92 620.06-20.21 621.32-17.5 621.32-14.4L621.32-14.4Q621.32-11.3 620.06-8.59 618.81-5.88 616.48-3.86 614.14-1.83 610.84-0.66 607.53 0.51 603.4 0.51L603.4 0.51Q599.28 0.51 595.97-0.66 592.66-1.83 590.33-3.86 588-5.88 586.74-8.59 585.48-11.3 585.48-14.4ZM593.08-14.4L593.08-14.4Q593.08-12.67 593.77-11.12 594.47-9.57 595.8-8.39 597.13-7.2 599.04-6.51 600.96-5.81 603.4-5.81L603.4-5.81Q605.84-5.81 607.76-6.51 609.68-7.2 611.01-8.39 612.34-9.57 613.03-11.12 613.73-12.67 613.73-14.4L613.73-14.4Q613.73-16.14 613.03-17.7 612.34-19.26 611.01-20.45 609.68-21.63 607.76-22.33 605.84-23.02 603.4-23.02L603.4-23.02Q600.96-23.02 599.04-22.33 597.13-21.63 595.8-20.45 594.47-19.26 593.77-17.7 593.08-16.14 593.08-14.4ZM628.62 0L628.62-28.81 635.85-28.81 635.85-26.37Q638.73-28 641.35-28.66 643.98-29.32 646.49-29.32L646.49-29.32Q649.79-29.32 652.59-28.36 655.4-27.39 657.45-25.49 659.5-23.58 660.66-20.74 661.82-17.9 661.82-14.16L661.82-14.16 661.82 0 654.62 0 654.62-12.99Q654.62-15.36 653.95-17.22 653.28-19.09 652.02-20.37 650.76-21.66 648.97-22.33 647.17-23 644.95-23L644.95-23Q643.78-23 642.55-22.75 641.31-22.51 640.13-22.06 638.95-21.61 637.85-20.94 636.75-20.26 635.85-19.41L635.85-19.41 635.85 0 628.62 0ZM668.7-3.37L671.83-8.84Q674.76-7.08 678.28-6.25 681.79-5.42 685.48-5.42L685.48-5.42Q687.97-5.42 689.63-5.76 691.29-6.1 692.29-6.64 693.29-7.18 693.7-7.86 694.12-8.54 694.12-9.25L694.12-9.25Q694.12-10.28 693.23-11.01 692.34-11.74 690.29-11.74L690.29-11.74Q689.33-11.74 688.24-11.62 687.14-11.5 685.93-11.36 684.72-11.23 683.41-11.11 682.11-10.99 680.77-10.99L680.77-10.99Q677.84-10.99 675.77-11.62 673.71-12.26 672.42-13.35 671.12-14.45 670.54-15.95 669.95-17.46 669.95-19.19L669.95-19.19Q669.95-21.39 670.98-23.24 672-25.1 673.91-26.45 675.81-27.81 678.51-28.56 681.2-29.32 684.53-29.32L684.53-29.32Q686.26-29.32 688.15-29.11 690.04-28.91 691.87-28.56 693.7-28.22 695.39-27.77 697.07-27.32 698.37-26.81L698.37-26.81 696.1-21.19Q693.34-22.22 690.59-22.81 687.85-23.41 684.94-23.41L684.94-23.41Q682.91-23.41 681.51-23.11 680.11-22.8 679.23-22.3 678.35-21.8 677.95-21.15 677.54-20.51 677.54-19.8L677.54-19.8Q677.54-19.29 677.75-18.87 677.96-18.46 678.43-18.15 678.91-17.85 679.68-17.69 680.45-17.53 681.57-17.53L681.57-17.53Q682.6-17.53 683.74-17.65 684.89-17.77 686.14-17.91 687.38-18.04 688.71-18.16 690.04-18.29 691.43-18.29L691.43-18.29Q694.02-18.29 695.96-17.68 697.9-17.07 699.17-15.97 700.44-14.87 701.08-13.38 701.71-11.89 701.71-10.13L701.71-10.13Q701.71-7.86 700.66-5.91 699.61-3.96 697.54-2.53 695.46-1.1 692.37-0.29 689.29 0.51 685.23 0.51L685.23 0.51Q682.74 0.51 680.42 0.21 678.1-0.1 676-0.62 673.91-1.15 672.06-1.86 670.22-2.56 668.7-3.37L668.7-3.37ZM723.39-19.31L723.39-19.31Q723.39-23.39 724.93-26.92 726.46-30.44 729.38-33.04 732.3-35.64 736.51-37.13 740.72-38.62 746.04-38.62L746.04-38.62Q750.71-38.62 754.6-37.68 758.49-36.74 761.84-34.81L761.84-34.81 758.28-28.96Q757.27-29.61 755.97-30.13 754.66-30.64 753.18-30.99 751.71-31.35 750.13-31.54 748.56-31.74 747.02-31.74L747.02-31.74Q743.31-31.74 740.4-30.82 737.5-29.91 735.51-28.26 733.52-26.61 732.48-24.33 731.44-22.05 731.44-19.31L731.44-19.31Q731.44-16.48 732.52-14.11 733.59-11.74 735.63-10.02 737.67-8.3 740.61-7.34 743.55-6.37 747.26-6.37L747.26-6.37Q748.95-6.37 750.61-6.62 752.27-6.86 753.82-7.29 755.37-7.71 756.81-8.31 758.25-8.91 759.5-9.62L759.5-9.62 763.06-3.76Q759.94-1.76 755.83-0.62 751.73 0.51 747.12 0.51L747.12 0.51Q741.23 0.51 736.79-1.01 732.35-2.54 729.37-5.21 726.39-7.89 724.89-11.51 723.39-15.14 723.39-19.31ZM768.94-14.4L768.94-14.4Q768.94-17.5 770.2-20.21 771.46-22.92 773.79-24.95 776.12-26.98 779.43-28.15 782.74-29.32 786.86-29.32L786.86-29.32Q790.99-29.32 794.3-28.15 797.6-26.98 799.94-24.95 802.27-22.92 803.52-20.21 804.78-17.5 804.78-14.4L804.78-14.4Q804.78-11.3 803.52-8.59 802.27-5.88 799.94-3.86 797.6-1.83 794.3-0.66 790.99 0.51 786.86 0.51L786.86 0.51Q782.74 0.51 779.43-0.66 776.12-1.83 773.79-3.86 771.46-5.88 770.2-8.59 768.94-11.3 768.94-14.4ZM776.53-14.4L776.53-14.4Q776.53-12.67 777.23-11.12 777.93-9.57 779.26-8.39 780.59-7.2 782.5-6.51 784.42-5.81 786.86-5.81L786.86-5.81Q789.3-5.81 791.22-6.51 793.14-7.2 794.47-8.39 795.8-9.57 796.49-11.12 797.19-12.67 797.19-14.4L797.19-14.4Q797.19-16.14 796.49-17.7 795.8-19.26 794.47-20.45 793.14-21.63 791.22-22.33 789.3-23.02 786.86-23.02L786.86-23.02Q784.42-23.02 782.5-22.33 780.59-21.63 779.26-20.45 777.93-19.26 777.23-17.7 776.53-16.14 776.53-14.4ZM812.27 0L812.27-28.81 819.5-28.81 819.5-26.37Q822.21-28.03 824.79-28.67 827.36-29.32 829.83-29.32L829.83-29.32Q833.27-29.32 836.15-28.22 839.03-27.12 841.08-24.9L841.08-24.9Q842.67-26.12 844.21-26.97 845.75-27.81 847.28-28.33 848.82-28.86 850.41-29.09 852-29.32 853.68-29.32L853.68-29.32Q857.22-29.32 860.1-28.36 862.98-27.39 865.02-25.49 867.06-23.58 868.17-20.74 869.28-17.9 869.28-14.16L869.28-14.16 869.28 0 862.08 0 862.08-12.99Q862.08-15.36 861.41-17.22 860.74-19.09 859.53-20.37 858.32-21.66 856.65-22.33 854.97-23 852.97-23L852.97-23Q851.87-23 850.73-22.79 849.58-22.58 848.49-22.14 847.41-21.7 846.45-21.03 845.5-20.36 844.79-19.46L844.79-19.46 844.79 0 837.59 0 837.59-12.99Q837.59-15.36 836.92-17.22 836.25-19.09 835.04-20.37 833.83-21.66 832.13-22.33 830.44-23 828.41-23L828.41-23Q827.17-23 825.91-22.74 824.65-22.49 823.49-22.02 822.33-21.56 821.32-20.9 820.31-20.24 819.5-19.41L819.5-19.41 819.5 0 812.27 0ZM876.99-14.5L876.99-14.5Q876.99-17.43 878.19-20.1 879.39-22.78 881.63-24.83 883.88-26.88 887.14-28.1 890.4-29.32 894.55-29.32L894.55-29.32Q898.67-29.32 901.98-28.09 905.29-26.86 907.6-24.71 909.9-22.56 911.14-19.65 912.37-16.75 912.37-13.43L912.37-13.43Q912.37-13.01 912.36-12.54 912.34-12.06 912.3-11.67L912.3-11.67 885.05-11.67Q885.51-10.38 886.55-9.3 887.59-8.23 889.15-7.45 890.71-6.67 892.76-6.24 894.82-5.81 897.31-5.81L897.31-5.81Q899.8-5.81 902.26-6.34 904.73-6.86 906.97-7.67L906.97-7.67 909.42-2.15Q908-1.49 906.55-0.99 905.09-0.49 903.52-0.16 901.94 0.17 900.22 0.34 898.5 0.51 896.6 0.51L896.6 0.51Q891.74 0.51 888.08-0.66 884.42-1.83 881.95-3.86 879.48-5.88 878.24-8.62 876.99-11.35 876.99-14.5ZM885.05-17.31L904.7-17.31Q904.31-18.51 903.49-19.54 902.68-20.58 901.46-21.35 900.24-22.12 898.62-22.56 897.01-23 895.08-23L895.08-23Q893.03-23 891.35-22.53 889.66-22.07 888.39-21.29 887.13-20.51 886.28-19.48 885.44-18.46 885.05-17.31L885.05-17.31ZM932.73 0L950.65-38.16 958.85-38.16 977.31 0 969.18 0 966.12-6.42 943.83-6.42 940.88 0 932.73 0ZM946.79-12.79L963.07-12.79 954.82-30.13 946.79-12.79ZM982.53 0L982.53-40.5 989.75-40.5 989.75 0 982.53 0ZM1002.81-32.74L1002.81-32.74Q1001.74-32.74 1000.87-33.04 1000.01-33.35 999.4-33.87 998.79-34.4 998.46-35.1 998.13-35.79 998.13-36.57L998.13-36.57Q998.13-37.38 998.46-38.07 998.79-38.77 999.4-39.28 1000.01-39.79 1000.87-40.1 1001.74-40.41 1002.81-40.41L1002.81-40.41Q1003.91-40.41 1004.78-40.1 1005.65-39.79 1006.26-39.28 1006.87-38.77 1007.2-38.07 1007.53-37.38 1007.53-36.57L1007.53-36.57Q1007.53-35.79 1007.2-35.1 1006.87-34.4 1006.26-33.87 1005.65-33.35 1004.78-33.04 1003.91-32.74 1002.81-32.74ZM999.2 0L999.2-28.81 1006.43-28.81 1006.43 0 999.2 0ZM1025.35 0L1011.7-28.83 1020.07-28.83 1027.57-11.5 1029.52-6.64 1031.47-11.5 1038.97-28.83 1047.34-28.83 1033.69 0 1025.35 0ZM1051.03-14.5L1051.03-14.5Q1051.03-17.43 1052.22-20.1 1053.42-22.78 1055.66-24.83 1057.91-26.88 1061.17-28.1 1064.43-29.32 1068.58-29.32L1068.58-29.32Q1072.71-29.32 1076.01-28.09 1079.32-26.86 1081.63-24.71 1083.94-22.56 1085.17-19.65 1086.4-16.75 1086.4-13.43L1086.4-13.43Q1086.4-13.01 1086.39-12.54 1086.38-12.06 1086.33-11.67L1086.33-11.67 1059.08-11.67Q1059.55-10.38 1060.58-9.3 1061.62-8.23 1063.18-7.45 1064.75-6.67 1066.8-6.24 1068.85-5.81 1071.34-5.81L1071.34-5.81Q1073.83-5.81 1076.29-6.34 1078.76-6.86 1081.01-7.67L1081.01-7.67 1083.45-2.15Q1082.03-1.49 1080.58-0.99 1079.13-0.49 1077.55-0.16 1075.98 0.17 1074.26 0.34 1072.53 0.51 1070.63 0.51L1070.63 0.51Q1065.77 0.51 1062.11-0.66 1058.45-1.83 1055.98-3.86 1053.52-5.88 1052.27-8.62 1051.03-11.35 1051.03-14.5ZM1059.08-17.31L1078.74-17.31Q1078.35-18.51 1077.53-19.54 1076.71-20.58 1075.49-21.35 1074.27-22.12 1072.66-22.56 1071.05-23 1069.12-23L1069.12-23Q1067.07-23 1065.38-22.53 1063.7-22.07 1062.43-21.29 1061.16-20.51 1060.32-19.48 1059.47-18.46 1059.08-17.31L1059.08-17.31ZM1096.24-13.89L1096.24-38.16 1103.98-38.16 1103.98-13.89 1096.24-13.89ZM1094.31-4.22L1094.31-4.22Q1094.31-5.2 1094.71-6.07 1095.12-6.93 1095.87-7.58 1096.63-8.23 1097.7-8.59 1098.78-8.96 1100.12-8.96L1100.12-8.96Q1101.46-8.96 1102.54-8.59 1103.61-8.23 1104.36-7.58 1105.1-6.93 1105.5-6.07 1105.91-5.2 1105.91-4.22L1105.91-4.22Q1105.91-3.25 1105.5-2.38 1105.1-1.51 1104.36-0.88 1103.61-0.24 1102.54 0.13 1101.46 0.51 1100.12 0.51L1100.12 0.51Q1098.78 0.51 1097.7 0.13 1096.63-0.24 1095.87-0.88 1095.12-1.51 1094.71-2.38 1094.31-3.25 1094.31-4.22Z" opacity="1" transform="matrix(1,0,0,1,0,0)" fill="#3765a2" class="slogan-text-1" data-fill-palette-color="secondary" id="text-1"></path></svg></g></svg></g></svg></g></svg></g><g><svg viewBox="0 0 138.4961397888145 138.4961397888145" height="138.4961397888145" width="138.4961397888145"><g><svg xmlns="http://www.w3.org/2000/svg" xmlns:xlink="http://www.w3.org/1999/xlink" version="1.1" x="0" y="0" viewBox="0 0 100 100" style="enable-background:new 0 0 100 100;" xml:space="preserve" height="138.4961397888145" width="138.4961397888145" class="icon-icon-0" data-fill-palette-color="accent" id="icon-0"><g fill="#f67357" data-fill-palette-color="accent"><path d="M74.988 37.5c0 13.807-11.182 25-24.988 25C50 55.604 44.396 50 37.5 50H24.988C12.5 50 0 42.969 0 25 0 6.641 12.5 0 24.988 0H50c12.5 0 24.988 7.745 24.988 25V37.5z" fill="#f67357" data-fill-palette-color="accent"></path></g><path d="M37.5 37.5" fill="#f67357" data-fill-palette-color="accent"></path><path d="M37.5 37.5" fill="#f67357" data-fill-palette-color="accent"></path><g fill="#f67357" data-fill-palette-color="accent"><g fill="#f67357" data-fill-palette-color="accent"><path d="M81.189 38.165C80.822 55.078 66.992 68.75 50 68.75h-6.25V62.5c0-3.448-2.808-6.25-6.25-6.25H25.623c-0.391 1.935-0.635 4.004-0.635 6.25V75c0 13.807 11.205 25 25.012 25 0-6.909 5.604-12.5 12.5-12.5h12.488C87.5 87.5 100 80.469 100 62.5 100 47.211 91.297 40.125 81.189 38.165z" fill="#f67357" data-fill-palette-color="accent"></path></g></g></svg></g></svg></g></svg></g><defs></defs></svg><rect width="395.52" height="99.32358037408073" fill="none" stroke="none" visibility="hidden"></rect></g></svg></g></svg>